<svg id="Layer_2" data-name="Layer 2" xmlns="http://www.w3.org/2000/svg" viewBox="0 0 531 635"><defs><style>.cls-1{fill:#fff;}.cls-2{fill:#939598;}.cls-3{fill:#808285;}.cls-4{fill:#8c8e91;}.cls-5{fill:#ffc82c;}.cls-6{fill:none;}.cls-7{fill:#231f20;}</style></defs><path class="cls-1" d="M422.63,241c0-25.78-1.33-51.61-2.5-77.36-.43-9.47-.83-18.95-1.65-28.39s-.12-18.53-2.35-27.67c-.8-3.25-3.05-6.29-5.13-9.14a14.79,14.79,0,0,0-1.19-1.66l-.65-.93a.58.58,0,0,0-.52-.28,13.25,13.25,0,0,0-3-2.11c-8.39-4.26-18.41-.55-27.26-1.56a.61.61,0,0,0-.28-.07l-.36,0c0-.9,0-1.81,0-2.72a.54.54,0,0,0-.29-.52.6.6,0,0,0-.34-.11l-12.36-.3a.64.64,0,0,0-.63.63c-.05.88-.08,1.76-.13,2.63-28.25-1-56.43,1.66-84.68,1.52-10.73,0-21.46-.23-32.19-.32-34.08-.3-68.22-.49-102.28,1-11.55.52-23.48.87-34.83,3.35a14.88,14.88,0,0,0-4,1.39l.09-.74c.06-.48-.69-.48-.75,0l-.15,1.26c-2.21,1.61-2.84,4.09-3.42,8.23-1.63,11.56-1.81,23.38-2.13,35-.46,16.77-.55,33.55-.54,50.32,0,27.29.41,54.57.81,81.85.33,22.91-.51,45.88-.51,68.8,0,36.88.26,73.77,1.09,110.65.3,13.43.63,26.86,1.41,40.27.22,3.68.44,7.38.93,11,.2,1.47.27,3.29,1.5,4.31a14.46,14.46,0,0,0,5.82,2.6c12,4.23,25.71,4.47,38.46,4.42.08,16.54,1.3,33,1.64,49.56a.63.63,0,0,0,.46.61,65.67,65.67,0,0,0,12.06.69.64.64,0,0,0,.63-.63c.07-2.76.15-5.51.22-8.27a74.46,74.46,0,0,0,.24-15.88c0-8.73-.18-17.46-.87-26.19q7.71-.09,15.41-.23c25.1.45,50.22.31,75.32,0,36,.39,72,.77,108,0,0,.39,0,.78-.06,1.18a.64.64,0,0,0,.63.63h12.07a.63.63,0,0,0,.63-.63c0-.51,0-1,0-1.52,3.15.18,6.26.23,9.37.21,1.08,0,2.15,0,3.23,0,.8,0,1.59-.08,2.38-.16l.94,0c5.41-.22,10.54.08,15.6-2.09,8-3.43,11-12.72,12.2-20.6.76-5.16.6-10.39.65-15.58.09-8.28.41-16.56.71-24.84.56-16,1.06-32.07,1.6-48.11,1-28.63.67-57.26.62-85.91C422.22,292.78,422.63,266.89,422.63,241Z"/><path class="cls-2" d="M363.21,493c.13-5.82.68-11.62,1-17.43.46-10-2.19-20,.2-29.91a3,3,0,0,1,.15-.42c.81-17.31-.77-34.66-.41-52,.18-9.12.66-18.27.28-27.39-.34-7.91-.82-15.78.54-23.61-1.78-16.75-.78-33.57-.31-50.38.24-8.43.1-16.76-.48-25.18-.46-6.67-.71-13.28.43-19.87-1.79-11.57-.26-24.13.27-35.65.51-11.15-2.69-22.42-1-33.47-1.83-13.53-.87-27.65-.56-41.27.3-13.34.82-26.67,1.44-40-12,.28-24.86,3.09-36.09,3.78-20.49,1.25-41.71,1.31-62-2.34-27.87-5-58.41,1.81-86.61,1.16-24.75-.56-68.78-7.17-72,27.51-1.61,17.27,0,35.55,0,52.93,0,29.92-.6,59.52,1.59,89.3,5.36,73.18-4.47,147.82,6.32,220.91,4.18,28.37,43.72,20.17,62.55,19.29,11.45-.54,22.17-1,33.55-1,29,0,58,.32,86.9-1.12,22-1.1,43.06-4.14,64.55-4.25C363.45,499.42,363.13,496.2,363.21,493Z"/><path class="cls-2" d="M409.33,181c-.62-22.08.35-45.85-9.51-66.23-5.25-10.86-13.41-15.7-22.88-17.48-.7,13.64-.33,27.29-.23,41,0,7-.21,14.06-.24,21.1,0,6.65.38,13.29-.21,19.93a3.37,3.37,0,0,1-.62,1.7c.92,11.18-.38,22.51-.67,33.7-.08,2.89-.18,5.78-.27,8.68A2.92,2.92,0,0,1,375,225c-.68,7.74.06,15.41.09,23.15,0,7.45-.48,14.86-.24,22.32.38,12.11,2.06,24.81.71,36.93,1.33,12.58.72,25.22.69,37.85a3,3,0,0,1-1.95,2.9c0,4.32.89,8.72,1.26,12.94.57,6.65.49,13.42.55,20.09.15,14.94-.64,29.87-.61,44.82,0,.13,0,.23,0,.35-.11,14.36-.51,28.71-.76,43.07-.13,7.49-.47,15.06-.13,22.55.17,3.65.41,7.28.36,10.91,1.49.07,3,.16,4.49.27,22.85,1.71,25.33-21.95,25.58-39.67.25-17.43.85-35,1.93-52.5q.71-11.55,1.71-23c2-22.3,0-45.48,1.4-68.17C413,273.57,410.63,227.23,409.33,181Zm-2.66-27.73c-1.13-2.8-2.27-5.6-3.47-8.39q2,4.71,4,9.4C407,153.93,406.83,153.59,406.67,153.25Z"/><path class="cls-3" d="M384.54,231.46c.17-6.39.3-12.32-.84-18.65s-.2-13.64-.2-20.08c0-15.33-1-30.56-1-45.88,0-7.13.58-14.51-.55-21.56A132.88,132.88,0,0,1,380.5,104a5,5,0,0,0-3.64-5c-.58,13.08-.25,26.16-.15,39.25,0,7-.21,14.06-.24,21.1,0,6.65.38,13.29-.21,19.93a3.31,3.31,0,0,1-.63,1.68c.93,11.19-.37,22.53-.66,33.72-.08,2.89-.18,5.78-.27,8.68A2.92,2.92,0,0,1,375,225c-.68,7.74.06,15.41.09,23.15,0,7.45-.48,14.86-.24,22.32.38,12.11,2.06,24.81.71,36.93,1.33,12.58.72,25.22.69,37.85a3,3,0,0,1-1.95,2.91c0,4.31.89,8.71,1.26,12.93.57,6.65.49,13.42.55,20.09.15,14.94-.64,29.87-.61,44.82,0,.13,0,.23,0,.35-.11,14.36-.51,28.71-.76,43.07-.13,7.49-.47,15.06-.13,22.55a130.25,130.25,0,0,1,.27,13.24c3.08.57,6.65-1.17,6.65-5.21,0-15.53.46-31.14-.06-46.66-.1-3.13-.84-6.2-.94-9.34-.12-3.51,0-7,0-10.55V384c0-6.82,1-13.56,1-20.43,0-3.36,1.13-6.85,1.24-10.28.13-3.75-.2-7.53-.24-11.29-.09-7.93.56-15.88.86-23.8.28-7.39.14-14.8.14-22.2,0-7.13-1.15-13.65-.2-20.79.9-6.76.22-13.77.88-20.59C384.94,246.94,384.34,239.16,384.54,231.46Z"/><path class="cls-4" d="M350.46,336.34c7.84-23.38,10.21-48.61-12.56-65.51-4.76-3.53-11.82-5.68-18.77-6.21a117.86,117.86,0,0,1,6.7-10.47c6.09-8.23,9.32-17.66,12.75-27.18,1.69-3.85,3.36-7.71,4.77-11.66,4.5-12.55,2.17-25.28-3.31-37-6.3-13.43-24.06-22.5-38.62-21.45-10.59.77-13.42,2-23,6.31-1.17.52-2.34,1.09-3.5,1.64a72.52,72.52,0,0,0-8.52,4.22,72.78,72.78,0,0,0-5.06-12.7c-5-10.35-16.22-16.7-26.58-20.14-6.37-2.12-14.28-1.89-21.21-.55-8.59.22-13.76,2.34-21.69,6-6.37,2.91-11.8,8-16.74,12.87l8.19-6.34c-13.46,10.38-27.09,22.13-36.74,36.38-3.62,4.69-6.64,9.61-7.87,15.83-2.16,11-1.72,21.29,4.08,31.2a40.8,40.8,0,0,0,2.87,4.23c-1.94,3.33-3.84,6.69-5.73,10.08-4.48,8-9.69,15-13.78,22.84A38.79,38.79,0,0,0,122.4,275c-1.63,3.49-3.88,8-4.81,12.18-2.11,9.47-1.59,14.22.13,23.77,1.78,9.89,10.24,19.3,18.61,24.2,11.45,6.71,29.62,8.38,40.89,0,2.58-1.92,5.06-3.93,7.49-6-6.43,10.51-12.73,20.94-17.42,32.39-.08.13-.16.26-.23.4-.88,1.13-1.77,2.25-2.63,3.41-5,6.63-5.15,15.08-6.16,22.81-1.61,12.5,8.62,29.92,20.06,35,10.07,4.45,10.13,4.53,21.06,5.81,4.36.51,8.93-.57,13.17-1.68a40.24,40.24,0,0,0,4.8-1.59,40.06,40.06,0,0,0,5.44,19.94c6.51,11.11,21.33,21.8,35,20.05,9.47-1.21,14.54-1.5,23-6.15,2.07-1.15,4.15-2.22,6.31-3.18l-3.46,1.47a198.9,198.9,0,0,0,19-9.7c6.19-3.57,11.71-8.13,17.18-12.74a30.84,30.84,0,0,0,4-2.63c7.86-3.21,15-10.43,19-17.12a40.43,40.43,0,0,0-5.53-48.23c1.57-3,3.09-5.95,4.45-9C344.73,351.46,347.89,344,350.46,336.34Z"/><path class="cls-3" d="M421.5,251.06c0-2.11.06-4.22.17-6.32a86.49,86.49,0,0,0,.18-11.26,113.16,113.16,0,0,1-.08-12.76c.15-3.47-.27-6.93-.41-10.4-.06-1.6.13-3.23.07-4.81s-.4-3.45-.48-5.17c-.1-2-.14-3.94-.25-5.9-.21-3.53-.12-7.05-.19-10.59s0-7.32-.35-10.94-.5-7.17-.7-10.82a27.54,27.54,0,0,1,0-4,8.74,8.74,0,0,0,.11-2.34c-.39-2.54-.5-5.06-.8-7.61a88.11,88.11,0,0,1-.82-8.9c0-3-.41-6-.51-9-.1-3.29,0-6.54-.24-9.82a40.41,40.41,0,0,0-.52-4.25c-.49-2.91-.7-6-1.48-8.86-.21-.78-1.12-3.21-2.06-3.29-.43,2.52.59,4.46,1.35,6.77a23.19,23.19,0,0,1,1.38,7.13c0,3.22.34,6.43.34,9.67,0,6,1,12,1.14,18,.13,6.67-1,13.72.11,20.33a65.2,65.2,0,0,1,.41,10c0,3.15.48,6.18.34,9.33a53.54,53.54,0,0,0,.92,9.5c.52,3.64.08,7.53.08,11.21,0,7.33-.45,14.59,0,22,.34,5.71,0,11.35.64,17.05a2.27,2.27,0,0,0-1,1.95c0,21,.34,42,.34,63,0,5.21-.67,10.37-.67,15.59,0,3.07-.06,6.15.12,9.22.15,2.69.88,6.13,0,8.72-1.51,4.53-.46,10.89-.46,15.59s.22,9.58.3,14.37c-.9,1.88-.3,2.92-.3,4.88v9.29c0,2.17.19,4.3.38,6.43a1.89,1.89,0,0,0-.05.23c-.57,4.54,0,8.83,0,13.34a132.16,132.16,0,0,1-1,14.33c-1.11,9.95-.38,20.05-1.67,30-1.18,9.2,1.85,18.29,1,27.33a68.48,68.48,0,0,0,0,8.23c-.07.25-.15.51-.24.77-.5,1.42-.07,2.93-.67,4.42s-.14,2.75-.65,4.08a8.56,8.56,0,0,0-.43,3.18,18.1,18.1,0,0,1-2.94,5.89,10.83,10.83,0,0,0-.95,1.41c-2.72,1-5.39,2.34-8.11,3.4a26,26,0,0,1-7.17,1.79c-3.58,0-6.5.83-10.16.24-3-.49-5.65.6-8.58.68-1.49,0-2.27.1-2.17,1.82a121.79,121.79,0,0,0,12.81.75c4.06-.08,7.94-1.12,11.95-1.57a24.59,24.59,0,0,0,10-3.12c3.64-2.19,5-6.07,6.16-9.9.34-1.11.9-2.11,1.23-3.18.42-1.33.55-2.78.88-4.13a34.66,34.66,0,0,0,.42-4.8c.3-3,.32-5.9.48-8.87.07-1.41-.1-2.84-.16-4.25s0-3,0-4.46c0-2.73-.12-5.48.05-8.21.15-2.4.23-5,.21-7.4,0-2.12.14-4.21.26-6.33.2-3.67.87-7.34,1-11,.1-3.48.48-7,.34-10.47a47.46,47.46,0,0,1,.28-7.54,56.73,56.73,0,0,0,.05-6.78c0-1.6.29-3,.21-4.63-.18-3.45,0-7,0-10.46,0-4.17.17-8.34.17-12.52a70.15,70.15,0,0,1,.25-9.94,63.82,63.82,0,0,0,.59-8.2c0-2-.12-4-.21-5.94-.1-2.17-.13-4.35-.13-6.53s.15-4.51,0-6.68c-.31-3.6-.12-7.27-.12-10.87,0-3.26.14-6.52.14-9.78,0-1.2.31-2.24.38-3.42.09-1.6-.1-3.2.05-4.8a29.28,29.28,0,0,0-.11-4.29c-.2-3-.42-5.86-.39-8.83s0-5.74,0-8.62-.11-5.89-.08-8.84a64.79,64.79,0,0,1,.55-8c.38-2.87,0-6,.1-8.92a84.9,84.9,0,0,0-.13-8.59c-.23-3.22-.45-6.45-.45-9.68Z"/><path class="cls-3" d="M358.17,513.4c1.06-1.38-3.81-1-4.84-.9a43.22,43.22,0,0,0-6.65.52c-4.68,1.09-9.33.81-14.06.81-4.47,0-9.37-1.29-13.78-.41-2,.4-3.9.06-5.84.08a39.31,39.31,0,0,0-5.16.83c-1.79.26-4.27-.17-5.73,1.09,1.68.52,4.07.2,5.79,0a34.79,34.79,0,0,1,6,0c4,.35,7.95,0,11.92,0,2.11,0,4.24-.17,6.37-.17s4.2.32,6.13.13a36.88,36.88,0,0,1,6.13,0c.93.06,1.78.39,2.72.42s1.91-.08,2.9-.08a56.42,56.42,0,0,1,6,0,19.85,19.85,0,0,0,2.89-.09c1.15-.06,4.52.23,3.63-2C361.82,511.79,359.14,512.13,358.17,513.4Z"/><path class="cls-5" d="M375.27,435.31c0-6.42.21-12.81.22-19.31,0-22.43.41-44.85-.1-67.31-.44-19,0-38,0-57V220.87c0-5.46,0-10.9-.27-16.36-.26-5.08,1.1-10.39,1-15.57-.22-15.14-.93-30.55-.18-45.68.86-17.44,1.91-35,.92-52.48-3.1.65-5.1-2.33-8.25-1.52-1.63,15.78-1.65,32.18-1.46,48,.06,5.37-.16,10.75-.16,16.12,0,10.66-.16,21.33.05,32,.26,14-1.48,27.45-.83,41.65.73,16.16,1.73,32.32,1.73,48.51,0,25.48-.49,49.77-.5,75.18,0,20.27.18,40.42.18,60.59,0,7.35.22,14.65.55,22,.5,11.3-1.73,22.15-1.73,33.45,0,11.62.18,23.25.37,34.87,0,2.75-1.51,13.3.81,15.3,2.7,2.33,7.11-.68,7.11-3.8v-.63s0-.09,0-.14c-.08-6.41-1-12.72-.73-19.12.18-3.39-.29-7,.42-10.31a31.77,31.77,0,0,0,.38-9.08c-.26-3.66.44-7.34.57-11,.2-5.76.37-11.55.08-17.36C375.33,442.08,375.27,438.69,375.27,435.31Z"/><path class="cls-5" d="M161.84,520.32a27.44,27.44,0,0,0-.56-4.94c-6.64.64-7.62,1.44-7.59,8,0,5.22-.64,10.43-.66,15.69a149.9,149.9,0,0,0,.37,15.14c.4,3.92-1.88,11.82,3.56,12.48,11.33,1.37,5.93-32.48,5.43-38.16C162.35,528.08,162.1,523.86,161.84,520.32Z"/><path class="cls-6" d="M102.63,255.45c.32,28.79,1,57.58,1.29,86.37.21,24.22-.55,48.43,0,72.66.72,31.56-.38,63.29,2.54,94.75.43.2.88.37,1.31.55a33.82,33.82,0,0,0,4.55,1.05c10.34,2,21,2.45,31.51,3,10.94.53,21.89.83,32.84,1,14.43-.24,28.84-.45,43.29-.32q17,.16,34,.36,20.54-.24,41-.7,21-.45,42-1.1c7.92-.25,16-.13,23.9-.93l.2,0c.25,0,.5,0,.75,0,1.13-22.89,1.1-45.87,1.32-68.78q.57-57.81.56-115.63.06-56.17-.2-112.33c-.21-40.9-1.61-81.77.35-122.65-28.74-1-57.39,1.73-86.12,1.51-12.36-.1-24.72-.27-37.08-.36-34-.25-68.2-.51-102.21,1.42-10.13.57-21.85.37-31.52,3.91a4.87,4.87,0,0,0-1.22.69c-2.72,22-2.85,44.42-3.18,66.53C102.15,196.06,102.3,225.76,102.63,255.45Z"/><path class="cls-6" d="M103.6,437.39c-.23-24.86-.85-49.69-.6-74.57.19-18.62-.06-37.2-.38-55.82-.63-37.53-1.16-75.07-1-112.6.11-31.09-.46-62.83,3.33-93.78-3.33,3.82-2.7,12.77-3,16.89-3.81,53.73-.41,107.66-.78,161.44-.45,64.16-1,128.31,1,192.46.33,10.59.51,21.28,1.66,31.83.15,1.38,0,4.38,1.37,5.3.16.11.33.2.5.3C103.5,485.09,103.83,461.22,103.6,437.39Z"/><path class="cls-6" d="M122.15,513.47c-1-.11-2.15-.19-3.36-.29,9.58,2,19.84,2.2,29.66,2.09C139.66,514.92,130.88,514.42,122.15,513.47Z"/><path class="cls-6" d="M418,358.68c.22-34.73.63-69.44,1-104.16.3-29.1-.64-58.12-2-87.18-.56-12.42-1.08-24.85-1.79-37.26-.31-5.55-.51-11.2-1-16.79,0,2-.09,4.06-.2,5.92-1.23,21.82.56,43.81.9,65.66.21,13.48.3,26.95.38,40.43q.34,59.47.11,119c-.12,32.18-1.1,64.37-1.1,96.54,0,17.78.87,35.78-1,53.49-.51,4.84-.7,10.62-4.88,13.83a21.67,21.67,0,0,1-3.65,2.26,10.87,10.87,0,0,0,7.4-5.76c4.21-8.42,4.45-18.73,4.62-28,.18-9.65-.29-19.3-.15-29C417.09,418,417.79,388.37,418,358.68Z"/><path class="cls-6" d="M377.28,139.62c-.88,63.75-1.9,127.44-1.12,191.2.37,30.49.82,60.95.36,91.45-.46,30-1.2,59.9-1.5,89.86,4.39.08,9.11.38,13.77.27l5.42-.65c1.22-.14,2.49-.24,3.75-.34a28.74,28.74,0,0,0,4.41-1.32c5.69-2.24,8.17-5.29,9.08-11,2.82-17.68,1.7-36.16,1.62-54-.06-13.16.45-26.33.63-39.49.5-39.1.57-78.21.54-117.31,0-33.47,0-66.94-.52-100.41-.3-20.74-2.23-41.68-1.29-62.39.29-6.43,1.74-16.85-1.11-24.07q-1.6-2.46-3.24-4.9a11.24,11.24,0,0,0-4.82-2.58c-8.54-2.28-17.06.26-25.57-.84C377.55,108.59,377.49,124.11,377.28,139.62Z"/><path class="cls-6" d="M375,513.38v.18c.92,0,1.84-.06,2.77-.11C376.83,513.42,375.91,513.39,375,513.38Z"/><path class="cls-6" d="M149.82,516.43c0,9.53.37,19.06.82,28.58.22,4.54.45,9.08.61,13.62.07,2,.14,3.93.18,5.9,0,1.6,3,1.26,4,1.3,1.9.1,3.81.17,5.72.19s1.09-3.59,1.13-5c.14-4.88.28-9.75.33-14.63.11-10-.09-20-.88-30l-7.73.06Z"/><path class="cls-6" d="M420.3,199c-.65-17.9-1.32-35.8-2.35-53.68-.47-8.11-.79-16.22-1.24-24.33-.28-5-.49-10.47-2.65-15.07,0,.3.1.6.14.91,2.66,21.93,2.81,44.26,3.84,66.31,1.38,29.5,2.12,59,1.59,88.55-.62,33.94-.69,67.88-.92,101.82-.13,18.26-.25,36.53-.53,54.79-.2,12.74-.92,25.5-.72,38.24.15,10.41.54,20.91-.5,31.29-.67,6.64-1.45,15.43-6.42,20.48-2.39,2.43-6,3.18-9.51,3.55-5.14,1.61-10.86,1.85-16.44,1.77-3.2.33-6.41.59-9.6.67v.18a153.37,153.37,0,0,0,24.06-.18c8.15-.83,14.07-5.78,16.6-13.56,2.46-7.59,2.32-15.34,2.43-23.22.15-10.21.57-20.4.9-30.6,1.24-38.82,2.22-77.53,2.06-116.38C420.87,286.68,421.87,242.86,420.3,199Z"/><path class="cls-6" d="M373.86,501.56c.21-15.93.52-31.86.83-47.79,1.22-62.65-.2-125.21-.19-187.86,0-58.74,1.37-117.47,1.95-176.21l-10.89-.26c-1.22,0-.32,1.66-.38,2.88q-.18,3.59-.33,7.17-.32,7.32-.52,14.65c-.54,20.12-.05,40.17.19,60.29.84,69.89.67,139.81.36,209.71-.15,34.49-.33,69-1,103.49q-.16,8.65-.43,17.31c-.08,2.36-.16,4.72-.26,7.08-.06,1.38.23,4.61-.8,4.61h9.9c2.83,0,1.45-.47,1.48-3.31C373.76,509.4,373.81,505.48,373.86,501.56Z"/><path class="cls-6" d="M361.32,513.32l-.09,0c-11.9,1.24-24.14,1-36.08,1.32q-12,.33-24,.59c20.2.09,40.4,0,60.61-.42,0-.51.05-1,.07-1.52Z"/><path class="cls-7" d="M422.63,241c0-25.78-1.33-51.61-2.5-77.36-.43-9.47-.83-18.95-1.65-28.39s-.12-18.53-2.35-27.67c-.8-3.25-3.05-6.29-5.13-9.14a14.79,14.79,0,0,0-1.19-1.66l-.65-.93a.58.58,0,0,0-.52-.28,13.25,13.25,0,0,0-3-2.11c-8.39-4.26-18.41-.55-27.26-1.56a.61.61,0,0,0-.28-.07l-.36,0c0-.9,0-1.81,0-2.72a.54.54,0,0,0-.29-.52.6.6,0,0,0-.34-.11l-12.36-.3a.64.64,0,0,0-.63.63c-.05.88-.08,1.76-.13,2.63-28.25-1-56.43,1.66-84.68,1.52-10.73,0-21.46-.23-32.19-.32-34.08-.3-68.22-.49-102.28,1-11.55.52-23.48.87-34.83,3.35a14.88,14.88,0,0,0-4,1.39l.09-.74c.06-.48-.69-.48-.75,0l-.15,1.26c-2.21,1.61-2.84,4.09-3.42,8.23-1.63,11.56-1.81,23.38-2.13,35-.46,16.77-.55,33.55-.54,50.32,0,27.29.41,54.57.81,81.85.33,22.91-.51,45.88-.51,68.8,0,36.88.26,73.77,1.09,110.65.3,13.43.63,26.86,1.41,40.27.22,3.68.44,7.38.93,11,.2,1.47.27,3.29,1.5,4.31a14.46,14.46,0,0,0,5.82,2.6c12,4.23,25.71,4.47,38.46,4.42.08,16.54,1.3,33,1.64,49.56a.63.63,0,0,0,.46.61,65.67,65.67,0,0,0,12.06.69.64.64,0,0,0,.63-.63c.47-16.79.92-33.57-.41-50.34q7.71-.09,15.41-.23c25.1.45,50.22.31,75.32,0,36,.39,72,.77,108,0,0,.39,0,.78-.06,1.18a.64.64,0,0,0,.63.63h12.07a.63.63,0,0,0,.63-.63c0-.51,0-1,0-1.52,5.34.3,10.57.27,15.92,0s10.54.08,15.6-2.09c8-3.43,11-12.72,12.2-20.6.76-5.16.6-10.39.65-15.58.09-8.28.41-16.56.71-24.84.56-16,1.06-32.07,1.6-48.11,1-28.63.67-57.26.62-85.91C422.22,292.78,422.63,266.89,422.63,241Zm-5.82,235.66c-.17,9.23-.41,19.54-4.62,28a10.87,10.87,0,0,1-7.4,5.76,21.67,21.67,0,0,0,3.65-2.26c4.18-3.21,4.37-9,4.88-13.83,1.86-17.71,1-35.71,1-53.49,0-32.17,1-64.36,1.1-96.54q.22-59.47-.11-119c-.08-13.48-.17-27-.38-40.43-.34-21.85-2.13-43.84-.9-65.66.11-1.86.2-3.87.2-5.92.5,5.59.7,11.24,1,16.79.71,12.41,1.23,24.84,1.79,37.26,1.32,29.06,2.26,58.08,2,87.18-.36,34.72-.77,69.43-1,104.16-.2,29.69-.9,59.36-1.33,89C416.52,457.36,417,467,416.81,476.66ZM403.26,93.92a11.24,11.24,0,0,1,4.82,2.58q1.64,2.44,3.24,4.9c2.85,7.22,1.4,17.64,1.11,24.07-.94,20.71,1,41.65,1.29,62.39.48,33.47.5,66.94.52,100.41,0,39.1,0,78.21-.54,117.31-.18,13.16-.69,26.33-.63,39.49.08,17.84,1.2,36.32-1.62,54-.91,5.73-3.39,8.78-9.08,11a28.74,28.74,0,0,1-4.41,1.32c-1.26.1-2.53.2-3.75.34l-5.42.65c-4.66.11-9.38-.19-13.77-.27.3-30,1-59.91,1.5-89.86.46-30.5,0-61-.36-91.45-.78-63.76.24-127.45,1.12-191.2.21-15.51.27-31,.41-46.54C386.2,94.18,394.72,91.64,403.26,93.92ZM375,513.38c.91,0,1.83,0,2.77.07-.93,0-1.85.09-2.77.11ZM107,99.15c9.67-3.54,21.39-3.34,31.52-3.91,34-1.93,68.17-1.67,102.21-1.42,12.36.09,24.72.26,37.08.36,28.73.22,57.38-2.56,86.12-1.51-2,40.88-.56,81.75-.35,122.65q.3,56.16.2,112.33-.06,57.81-.56,115.63c-.22,22.91-.19,45.89-1.32,68.78-.25,0-.5,0-.75,0l-.2,0c-7.89.8-16,.68-23.9.93q-21,.68-42,1.1-20.52.45-41,.7-17-.18-34-.36c-14.45-.13-28.86.08-43.29.32-10.95-.19-21.9-.49-32.84-1-10.49-.51-21.17-1-31.51-3a33.82,33.82,0,0,1-4.55-1.05c-.43-.18-.88-.35-1.31-.55-2.92-31.46-1.82-63.19-2.54-94.75-.55-24.23.21-48.44,0-72.66-.25-28.79-1-57.58-1.29-86.37-.33-29.69-.48-59.39,0-89.08.33-22.11.46-44.54,3.18-66.53A4.87,4.87,0,0,1,107,99.15Zm-3.18,404.09c-1.15-10.55-1.33-21.24-1.66-31.83-2-64.15-1.44-128.3-1-192.46.37-53.78-3-107.71.78-161.44.29-4.12-.34-13.07,3-16.89-3.79,30.95-3.22,62.69-3.33,93.78-.14,37.53.39,75.07,1,112.6.32,18.62.57,37.2.38,55.82-.25,24.88.37,49.71.6,74.57.23,23.83-.1,47.7,2.08,71.45-.17-.1-.34-.19-.5-.3C103.83,507.62,104,504.62,103.81,503.24Zm15,9.94c1.21.1,2.34.18,3.36.29,8.73.95,17.51,1.45,26.3,1.8C138.63,515.38,128.37,515.2,118.79,513.18Zm43.78,33.16c0,4.88-.19,9.75-.33,14.63,0,1.46.69,5.08-1.13,5s-3.82-.09-5.72-.19c-.94,0-3.93.3-4-1.3,0-2-.11-3.93-.18-5.9-.16-4.54-.39-9.08-.61-13.62-.45-9.52-.78-19-.82-28.58l4.14,0,7.73-.06C162.48,526.33,162.68,536.33,162.57,546.34Zm138.57-31.09q12-.27,24-.59c11.94-.34,24.18-.08,36.08-1.32l.09,0h.5c0,.51-.05,1-.07,1.52C341.54,515.26,321.34,515.34,301.14,515.25Zm71.11,1.38h-9.9c1,0,.74-3.23.8-4.61.1-2.36.18-4.72.26-7.08q.27-8.65.43-17.31c.71-34.49.89-69,1-103.49.31-69.9.48-139.82-.36-209.71-.24-20.12-.73-40.17-.19-60.29q.19-7.33.52-14.65.15-3.58.33-7.17c.06-1.22-.84-2.91.38-2.88l10.89.26c-.58,58.74-1.94,117.47-1.95,176.21,0,62.65,1.41,125.21.19,187.86-.31,15.93-.62,31.86-.83,47.79-.05,3.92-.1,7.84-.13,11.76C373.7,516.16,375.08,516.63,372.25,516.63ZM421,330.55c.16,38.85-.82,77.56-2.06,116.38-.33,10.2-.75,20.39-.9,30.6-.11,7.88,0,15.63-2.43,23.22-2.53,7.78-8.45,12.73-16.6,13.56a153.37,153.37,0,0,1-24.06.18v-.18c3.19-.08,6.4-.34,9.6-.67,5.58.08,11.3-.16,16.44-1.77,3.56-.37,7.12-1.12,9.51-3.55,5-5.05,5.75-13.84,6.42-20.48,1-10.38.65-20.88.5-31.29-.2-12.74.52-25.5.72-38.24.28-18.26.4-36.53.53-54.79.23-33.94.3-67.88.92-101.82.53-29.54-.21-59-1.59-88.55-1-22.05-1.18-44.38-3.84-66.31,0-.31-.1-.61-.14-.91,2.16,4.6,2.37,10.07,2.65,15.07.45,8.11.77,16.22,1.24,24.33,1,17.88,1.7,35.78,2.35,53.68C421.87,242.86,420.87,286.68,421,330.55Z"/></svg>
